<svg width="290" height="100" viewBox="0 0 290 100" fill="none" xmlns="http://www.w3.org/2000/svg">
<path d="M257 39L261.5 40.5L268.5 32.5H275.5L281 24L285 17L287 5.5L283 3L275.5 5.5L265 4.5L246 8.5L167 11C139.833 13.3333 83.5 17.3 75.5 14.5L73 23.5L26 20L23 36L14 58.5L12.5 68L3 74L6 82L3 90.5L5 95.5L11.5 97L202.5 92V87" stroke="white" stroke-width="6" stroke-linejoin="round"/>
<path d="M215.452 80V76.62L223.018 68.196L223.98 70.068H215.66V65.778H228.738V69.158L221.172 77.582L220.21 75.71H229.024V80H215.452Z" fill="#FFA72B"/>
<path d="M206.965 80.26C205.231 80.26 203.715 79.9393 202.415 79.298C201.132 78.6567 200.135 77.7813 199.425 76.672C198.714 75.5453 198.359 74.28 198.359 72.876C198.359 71.4373 198.705 70.1633 199.399 69.054C200.109 67.9447 201.071 67.078 202.285 66.454C203.515 65.83 204.893 65.518 206.419 65.518C207.823 65.518 209.114 65.7953 210.293 66.35C211.489 66.9047 212.442 67.728 213.153 68.82C213.881 69.912 214.245 71.264 214.245 72.876C214.245 73.084 214.236 73.318 214.219 73.578C214.201 73.8207 214.184 74.046 214.167 74.254H203.221V71.42H211.047L208.837 72.174C208.837 71.6193 208.733 71.1513 208.525 70.77C208.334 70.3713 208.065 70.068 207.719 69.86C207.372 69.6347 206.956 69.522 206.471 69.522C205.985 69.522 205.561 69.6347 205.197 69.86C204.85 70.068 204.581 70.3713 204.391 70.77C204.2 71.1513 204.105 71.6193 204.105 72.174V73.058C204.105 73.6647 204.226 74.1847 204.469 74.618C204.711 75.0513 205.058 75.3807 205.509 75.606C205.959 75.814 206.505 75.918 207.147 75.918C207.805 75.918 208.343 75.8313 208.759 75.658C209.192 75.4847 209.643 75.2247 210.111 74.878L213.179 77.972C212.485 78.7173 211.627 79.2893 210.605 79.688C209.599 80.0693 208.386 80.26 206.965 80.26Z" fill="#FFA72B"/>
<path d="M190.642 65.518C191.716 65.518 192.678 65.7433 193.528 66.194C194.394 66.6273 195.07 67.312 195.556 68.248C196.058 69.184 196.31 70.3973 196.31 71.888V80H190.434V72.902C190.434 72.018 190.286 71.394 189.992 71.03C189.697 70.6487 189.316 70.458 188.848 70.458C188.501 70.458 188.189 70.5447 187.912 70.718C187.634 70.8913 187.409 71.1687 187.236 71.55C187.08 71.914 187.002 72.4167 187.002 73.058V80H181.126V72.902C181.126 72.018 180.987 71.394 180.71 71.03C180.432 70.6487 180.042 70.458 179.54 70.458C179.193 70.458 178.881 70.5447 178.604 70.718C178.326 70.8913 178.101 71.1687 177.928 71.55C177.772 71.914 177.694 72.4167 177.694 73.058V80H171.818V65.778H177.408V69.86L176.264 68.716C176.801 67.6413 177.52 66.844 178.422 66.324C179.323 65.7867 180.328 65.518 181.438 65.518C182.686 65.518 183.786 65.8473 184.74 66.506C185.71 67.1473 186.36 68.17 186.69 69.574L184.896 69.288C185.416 68.1093 186.17 67.1907 187.158 66.532C188.163 65.856 189.324 65.518 190.642 65.518Z" fill="#FFA72B"/>
<path d="M161.711 80.26C160.099 80.26 158.669 79.948 157.421 79.324C156.19 78.6827 155.219 77.8073 154.509 76.698C153.798 75.5887 153.443 74.3147 153.443 72.876C153.443 71.4373 153.798 70.1633 154.509 69.054C155.219 67.9447 156.19 67.078 157.421 66.454C158.669 65.83 160.099 65.518 161.711 65.518C163.323 65.518 164.753 65.83 166.001 66.454C167.249 67.078 168.219 67.9447 168.913 69.054C169.623 70.1633 169.979 71.4373 169.979 72.876C169.979 74.3147 169.623 75.5887 168.913 76.698C168.219 77.8073 167.249 78.6827 166.001 79.324C164.753 79.948 163.323 80.26 161.711 80.26ZM161.711 75.684C162.144 75.684 162.534 75.58 162.881 75.372C163.227 75.164 163.505 74.852 163.713 74.436C163.921 74.0027 164.025 73.4827 164.025 72.876C164.025 72.252 163.921 71.7407 163.713 71.342C163.505 70.926 163.227 70.614 162.881 70.406C162.534 70.198 162.144 70.094 161.711 70.094C161.277 70.094 160.887 70.198 160.541 70.406C160.194 70.614 159.917 70.926 159.709 71.342C159.501 71.7407 159.397 72.252 159.397 72.876C159.397 73.4827 159.501 74.0027 159.709 74.436C159.917 74.852 160.194 75.164 160.541 75.372C160.887 75.58 161.277 75.684 161.711 75.684Z" fill="#FFA72B"/>
<path d="M145.286 61.8H151.422V80H145.286V61.8ZM139.618 80H133.482V61.8H139.618V80ZM145.702 73.292H139.202V68.248H145.702V73.292Z" fill="#FFA72B"/>
<path d="M218.992 38.948C220.504 38.948 221.872 39.26 223.096 39.884C224.32 40.484 225.28 41.432 225.976 42.728C226.696 44.024 227.056 45.704 227.056 47.768V59H218.92V49.172C218.92 47.948 218.704 47.084 218.272 46.58C217.84 46.052 217.252 45.788 216.508 45.788C215.956 45.788 215.44 45.92 214.96 46.184C214.504 46.424 214.132 46.832 213.844 47.408C213.58 47.984 213.448 48.764 213.448 49.748V59H205.312V39.308H213.052V45.068L211.504 43.412C212.272 41.924 213.304 40.808 214.6 40.064C215.92 39.32 217.384 38.948 218.992 38.948Z" fill="white"/>
<path d="M193.714 38.948C195.226 38.948 196.594 39.26 197.818 39.884C199.042 40.484 200.002 41.432 200.698 42.728C201.418 44.024 201.778 45.704 201.778 47.768V59H193.642V49.172C193.642 47.948 193.426 47.084 192.994 46.58C192.562 46.052 191.974 45.788 191.23 45.788C190.678 45.788 190.162 45.92 189.682 46.184C189.226 46.424 188.854 46.832 188.566 47.408C188.302 47.984 188.17 48.764 188.17 49.748V59H180.034V39.308H187.774V45.068L186.226 43.412C186.994 41.924 188.026 40.808 189.322 40.064C190.642 39.32 192.106 38.948 193.714 38.948Z" fill="white"/>
<path d="M167.387 59.36C164.987 59.36 162.887 58.916 161.087 58.028C159.311 57.14 157.931 55.928 156.947 54.392C155.963 52.832 155.471 51.08 155.471 49.136C155.471 47.144 155.951 45.38 156.911 43.844C157.895 42.308 159.227 41.108 160.907 40.244C162.611 39.38 164.519 38.948 166.631 38.948C168.575 38.948 170.363 39.332 171.995 40.1C173.651 40.868 174.971 42.008 175.955 43.52C176.963 45.032 177.467 46.904 177.467 49.136C177.467 49.424 177.455 49.748 177.431 50.108C177.407 50.444 177.383 50.756 177.359 51.044H162.203V47.12H173.039L169.979 48.164C169.979 47.396 169.835 46.748 169.547 46.22C169.283 45.668 168.911 45.248 168.431 44.96C167.951 44.648 167.375 44.492 166.703 44.492C166.031 44.492 165.443 44.648 164.939 44.96C164.459 45.248 164.087 45.668 163.823 46.22C163.559 46.748 163.427 47.396 163.427 48.164V49.388C163.427 50.228 163.595 50.948 163.931 51.548C164.267 52.148 164.747 52.604 165.371 52.916C165.995 53.204 166.751 53.348 167.639 53.348C168.551 53.348 169.295 53.228 169.871 52.988C170.471 52.748 171.095 52.388 171.743 51.908L175.991 56.192C175.031 57.224 173.843 58.016 172.427 58.568C171.035 59.096 169.355 59.36 167.387 59.36Z" fill="white"/>
<path d="M140.653 59V40.388H133.273V33.8H156.529V40.388H149.149V59H140.653Z" fill="white"/>
<path d="M127.874 59.36C125.162 59.36 123.05 58.712 121.538 57.416C120.026 56.096 119.27 54.08 119.27 51.368V34.88H127.406V51.296C127.406 51.896 127.562 52.364 127.874 52.7C128.21 53.036 128.618 53.204 129.098 53.204C129.794 53.204 130.406 53.024 130.934 52.664L132.878 58.316C132.254 58.676 131.498 58.94 130.61 59.108C129.746 59.276 128.834 59.36 127.874 59.36ZM116.57 46.328V40.388H131.438V46.328H116.57Z" fill="white"/>
<path d="M105.719 59.36C104.039 59.36 102.383 59.18 100.751 58.82C99.1189 58.46 97.7989 57.992 96.7909 57.416L99.0229 52.052C99.9589 52.604 101.039 53.036 102.263 53.348C103.511 53.66 104.723 53.816 105.899 53.816C106.883 53.816 107.543 53.732 107.879 53.564C108.239 53.396 108.419 53.168 108.419 52.88C108.419 52.592 108.215 52.388 107.807 52.268C107.399 52.124 106.859 52.016 106.187 51.944C105.515 51.872 104.771 51.788 103.955 51.692C103.163 51.572 102.359 51.404 101.543 51.188C100.727 50.972 99.9829 50.648 99.3109 50.216C98.6389 49.784 98.0989 49.208 97.6909 48.488C97.2829 47.744 97.0789 46.808 97.0789 45.68C97.0789 44.432 97.4509 43.304 98.1949 42.296C98.9629 41.288 100.091 40.484 101.579 39.884C103.091 39.26 104.951 38.948 107.159 38.948C108.599 38.948 110.039 39.08 111.479 39.344C112.919 39.608 114.155 40.016 115.187 40.568L112.955 45.932C111.947 45.38 110.951 45.008 109.967 44.816C109.007 44.6 108.107 44.492 107.267 44.492C106.235 44.492 105.527 44.588 105.143 44.78C104.783 44.972 104.603 45.188 104.603 45.428C104.603 45.716 104.807 45.932 105.215 46.076C105.623 46.22 106.163 46.328 106.835 46.4C107.507 46.472 108.239 46.568 109.031 46.688C109.847 46.784 110.651 46.952 111.443 47.192C112.259 47.408 113.003 47.732 113.675 48.164C114.347 48.596 114.887 49.184 115.295 49.928C115.703 50.648 115.907 51.572 115.907 52.7C115.907 53.876 115.535 54.98 114.791 56.012C114.047 57.02 112.919 57.836 111.407 58.46C109.895 59.06 107.999 59.36 105.719 59.36Z" fill="white"/>
<path d="M86.9387 59V55.508L86.3627 54.572V47.948C86.3627 46.988 86.0627 46.256 85.4627 45.752C84.8867 45.248 83.9387 44.996 82.6187 44.996C81.7307 44.996 80.8307 45.14 79.9187 45.428C79.0067 45.692 78.2267 46.064 77.5787 46.544L74.9867 41.18C76.1387 40.46 77.5187 39.908 79.1267 39.524C80.7347 39.14 82.3067 38.948 83.8427 38.948C87.2267 38.948 89.8427 39.704 91.6907 41.216C93.5627 42.728 94.4987 45.128 94.4987 48.416V59H86.9387ZM81.3587 59.36C79.7507 59.36 78.4067 59.084 77.3267 58.532C76.2467 57.98 75.4307 57.248 74.8787 56.336C74.3267 55.4 74.0507 54.368 74.0507 53.24C74.0507 51.968 74.3747 50.888 75.0227 50C75.6707 49.112 76.6547 48.44 77.9747 47.984C79.3187 47.528 81.0107 47.3 83.0507 47.3H87.1547V51.224H84.3467C83.4827 51.224 82.8467 51.368 82.4387 51.656C82.0547 51.92 81.8627 52.328 81.8627 52.88C81.8627 53.336 82.0307 53.72 82.3667 54.032C82.7267 54.32 83.2067 54.464 83.8067 54.464C84.3587 54.464 84.8627 54.32 85.3187 54.032C85.7987 53.72 86.1467 53.24 86.3627 52.592L87.4067 55.004C87.0947 56.468 86.4347 57.56 85.4267 58.28C84.4187 59 83.0627 59.36 81.3587 59.36Z" fill="white"/>
<path d="M58.828 43.16H70.06V49.28H58.828V43.16ZM59.404 52.592H72.004V59H51.052V33.8H71.536V40.208H59.404V52.592Z" fill="white"/>
</svg>
